<svg id="svg1" width="1628" height="200" xmlns="http://www.w3.org/2000/svg">
  <g fill="none" stroke="black" stroke-width="1">
    <path class="en1 q1q0" d="M45 148 L45 28"/>
    <path class="en2 en1 q2q1" d="M180 148 L180 188 C180 108 180 108 144 108 C108 108 108 108 108 188 L108 148"/>
    <path class="en3 en2 q3q2" d="M314 148 L314 188 C314 108 314 108 283 108 C252 108 252 108 252 188 L252 148"/>
    <path class="en10 en11 q10q11" d="M1451 148 L1451 188 C1451 108 1451 108 1492 108 C1533 108 1533 108 1533 188 L1533 148"/>
    <path class="en5 en4 q5q4" d="M583 148 L583 188 C583 108 583 108 539 108 C495 108 495 108 495 188 L495 148"/>
    <path class="en7 en6 q7q6" d="M847 148 L847 188 C847 108 847 108 810 108 C774 108 774 108 774 188 L774 148"/>
    <path class="en8 en7 q8q7" d="M1013 148 L1013 188 C1013 108 1013 108 973 108 C933 108 933 108 933 188 L933 148"/>
    <path class="en9 en11 q9q11" d="M1265 148 L1265 148 C1265 68 1265 68 1415 68 C1565 68 1565 68 1565 148 L1565 148"/>
    <path class="en4 en2 q4q2" d="M435 148 L435 148 C435 68 435 68 331 68 C228 68 228 68 228 148 L228 148"/>
    <path class="en6 en2 q6q2" d="M727 148 L727 108 C727 28 727 28 465 28 C204 28 204 28 204 108 L204 148"/>
    <path class="en11 en7 q11q7" d="M1597 148 L1597 108 C1597 28 1597 28 1243 28 C890 28 890 28 890 108 L890 148"/>
  </g>
  <g fill="black" stroke-width="1" stroke="black">
    <path class="en1 en0 q1q0" d="M45 148 l3 -14 l-6 0 Z"/>
    <path class="en2 en1 q2q1" d="M180 148 l3 -14 l-6 0 Z"/>
    <path class="en3 en2 q3q2" d="M314 148 l3 -14 l-6 0 Z"/>
    <path class="en10 en11 q10q11" d="M1451 148 l3 -14 l-6 0 Z"/>
    <path class="en5 en4 q5q4" d="M583 148 l3 -14 l-6 0 Z"/>
    <path class="en7 en6 q7q6" d="M847 148 l3 -14 l-6 0 Z"/>
    <path class="en8 en7 q8q7" d="M1013 148 l3 -14 l-6 0 Z"/>
    <path class="en9 en11 q9q11" d="M1265 148 l3 -14 l-6 0 Z"/>
    <path class="en4 en2 q4q2" d="M435 148 l3 -14 l-6 0 Z"/>
    <path class="en6 en2 q6q2" d="M727 148 l3 -14 l-6 0 Z"/>
    <path class="en11 en7 q11q7" d="M1597 148 l3 -14 l-6 0 Z"/>
  </g>
  <g fill="white" stroke="white" stroke-width="1" opacity="0.9">
    <rect x="11" y="7" width="67" height="19"/>
    <rect x="108" y="87" width="72" height="19"/>
    <rect x="249" y="87" width="67" height="19"/>
    <rect x="1433" y="87" width="118" height="19"/>
    <rect x="499" y="87" width="79" height="19"/>
    <rect x="777" y="87" width="67" height="19"/>
    <rect x="933" y="87" width="79" height="19"/>
    <rect x="1333" y="47" width="164" height="19"/>
    <rect x="244" y="47" width="174" height="19"/>
    <rect x="377" y="7" width="176" height="19"/>
    <rect x="1207" y="7" width="72" height="19"/>
  </g>
  <g font-family="FreeSans, Arial, Helvetica, sans-serif" font-size="16" text-anchor="middle">
    <text class="ln1 ln0 p1p0" x="45" y="20" onclick="hld('svg1',1,0)" onmouseover="mrk('svg1',1,0)" onmouseout="unmrk('svg1',1,0)">Subjekt</text>
    <text class="ln2 ln1 p2p1" x="144" y="100" onclick="hld('svg1',2,1)" onmouseover="mrk('svg1',2,1)" onmouseout="unmrk('svg1',2,1)">Prädikat</text>
    <text class="ln3 ln2 p3p2" x="283" y="100" onclick="hld('svg1',3,2)" onmouseover="mrk('svg1',3,2)" onmouseout="unmrk('svg1',3,2)">der Zeit</text>
    <text class="ln10 ln11 p10p11" x="1492" y="100" onclick="hld('svg1',10,11)" onmouseover="mrk('svg1',10,11)" onmouseout="unmrk('svg1',10,11)">Ortsverhältniß</text>
    <text class="ln5 ln4 p5p4" x="539" y="100" onclick="hld('svg1',5,4)" onmouseover="mrk('svg1',5,4)" onmouseout="unmrk('svg1',5,4)">Attributiv</text>
    <text class="ln7 ln6 p7p6" x="810" y="100" onclick="hld('svg1',7,6)" onmouseover="mrk('svg1',7,6)" onmouseout="unmrk('svg1',7,6)">Subjekt</text>
    <text class="ln8 ln7 p8p7" x="973" y="100" onclick="hld('svg1',8,7)" onmouseover="mrk('svg1',8,7)" onmouseout="unmrk('svg1',8,7)">Attributiv</text>
    <text class="ln9 ln11 p9p11" x="1415" y="60" onclick="hld('svg1',9,11)" onmouseover="mrk('svg1',9,11)" onmouseout="unmrk('svg1',9,11)">Persönliches Objekt</text>
    <text class="ln4 ln2 p4p2" x="331" y="60" onclick="hld('svg1',4,2)" onmouseover="mrk('svg1',4,2)" onmouseout="unmrk('svg1',4,2)">Gethanes (Gewußtes)</text>
    <text class="ln6 ln2 p6p2" x="465" y="20" onclick="hld('svg1',6,2)" onmouseover="mrk('svg1',6,2)" onmouseout="unmrk('svg1',6,2)">Adverbialsatz der Zeit</text>
    <text class="ln11 ln7 p11p7" x="1243" y="20" onclick="hld('svg1',11,7)" onmouseover="mrk('svg1',11,7)" onmouseout="unmrk('svg1',11,7)">Prädikat</text>
  </g>
  <g fill="#D0E0FF" stroke="black" stroke-width="1">
    <rect class="q1 en1 en0 en2" x="4" y="148" width="146" height="48" rx="5" ry="5"/>
    <rect class="q2 en1 en3 en4 en6 en2" x="158" y="148" width="117" height="48" rx="5" ry="5"/>
    <rect class="q3 en3 en2" x="283" y="148" width="104" height="48" rx="5" ry="5"/>
    <rect class="q4 en5 en4 en2" x="395" y="148" width="140" height="48" rx="5" ry="5"/>
    <rect class="q5 en5 en4" x="543" y="148" width="143" height="48" rx="5" ry="5"/>
    <rect class="q6 en7 en6 en2" x="694" y="148" width="114" height="48" rx="5" ry="5"/>
    <rect class="q7 en6 en8 en11 en7" x="816" y="148" width="149" height="48" rx="5" ry="5"/>
    <rect class="q8 en8 en7" x="973" y="148" width="143" height="48" rx="5" ry="5"/>
    <rect class="q9 en9 en11" x="1124" y="148" width="195" height="48" rx="5" ry="5"/>
    <rect class="q10 en11 en10" x="1327" y="148" width="172" height="48" rx="5" ry="5"/>
    <rect class="q11 en10 en11 en9 en7" x="1507" y="148" width="117" height="48" rx="5" ry="5"/>
  </g>
  <g font-family="FreeSans, Arial, Helvetica, sans-serif" font-size="16" text-anchor="middle">
    <text x="77" y="167">Substantiv Nom.</text>
    <text x="216" y="167">Verb Imperf.</text>
    <text x="335" y="167">Adverb</text>
    <text x="465" y="167">Substantiv Akk.</text>
    <text x="614" y="167">Substantiv Gen.</text>
    <text x="751" y="167">Konjunktion</text>
    <text x="890" y="167">Substantiv Nom.</text>
    <text x="1044" y="167">Substantiv Gen.</text>
    <text x="1221" y="167">Personalpronomen Dat.</text>
    <text x="1413" y="167">Substantiv mit Präp.</text>
    <text x="1565" y="167">Verb Imperf.</text>
  </g>
  <g font-family="FreeSans, Arial, Helvetica, sans-serif" font-size="16" text-anchor="middle" font-style="italic">
    <text x="77" y="187">Wallenstein</text>
    <text x="216" y="187">wußte</text>
    <text x="335" y="187">längst</text>
    <text x="465" y="187">den Inhalt</text>
    <text x="614" y="187">ihrer Sendung</text>
    <text x="751" y="187">als</text>
    <text x="890" y="187">die Abgesandten</text>
    <text x="1044" y="187">des Kaisers</text>
    <text x="1221" y="187">ihm</text>
    <text x="1413" y="187">vor die Augen</text>
    <text x="1565" y="187">traten</text>
  </g>
  <g opacity="0" stroke-width="1">
    <rect x="4" y="148" width="146" height="48" rx="5" ry="5" onclick="hold('svg1',1)" onmouseover="mark('svg1',1)" onmouseout="unmark('svg1',1)"/>
    <rect x="158" y="148" width="117" height="48" rx="5" ry="5" onclick="hold('svg1',2)" onmouseover="mark('svg1',2)" onmouseout="unmark('svg1',2)"/>
    <rect x="283" y="148" width="104" height="48" rx="5" ry="5" onclick="hold('svg1',3)" onmouseover="mark('svg1',3)" onmouseout="unmark('svg1',3)"/>
    <rect x="395" y="148" width="140" height="48" rx="5" ry="5" onclick="hold('svg1',4)" onmouseover="mark('svg1',4)" onmouseout="unmark('svg1',4)"/>
    <rect x="543" y="148" width="143" height="48" rx="5" ry="5" onclick="hold('svg1',5)" onmouseover="mark('svg1',5)" onmouseout="unmark('svg1',5)"/>
    <rect x="694" y="148" width="114" height="48" rx="5" ry="5" onclick="hold('svg1',6)" onmouseover="mark('svg1',6)" onmouseout="unmark('svg1',6)"/>
    <rect x="816" y="148" width="149" height="48" rx="5" ry="5" onclick="hold('svg1',7)" onmouseover="mark('svg1',7)" onmouseout="unmark('svg1',7)"/>
    <rect x="973" y="148" width="143" height="48" rx="5" ry="5" onclick="hold('svg1',8)" onmouseover="mark('svg1',8)" onmouseout="unmark('svg1',8)"/>
    <rect x="1124" y="148" width="195" height="48" rx="5" ry="5" onclick="hold('svg1',9)" onmouseover="mark('svg1',9)" onmouseout="unmark('svg1',9)"/>
    <rect x="1327" y="148" width="172" height="48" rx="5" ry="5" onclick="hold('svg1',10)" onmouseover="mark('svg1',10)" onmouseout="unmark('svg1',10)"/>
    <rect x="1507" y="148" width="117" height="48" rx="5" ry="5" onclick="hold('svg1',11)" onmouseover="mark('svg1',11)" onmouseout="unmark('svg1',11)"/>
  </g>
  <g fill="#D0E0FF" stroke="black" stroke-width="1"></g>
  <g font-family="FreeSans, Arial, Helvetica, sans-serif" font-size="16" font-style="italic" text-anchor="middle"></g>
</svg>